<?xml version="1.0" encoding="utf-8"?>
<!-- Generator: Adobe Illustrator 21.0.1, SVG Export Plug-In . SVG Version: 6.00 Build 0)  -->
<svg version="1.1" id="Layer_1" xmlns="http://www.w3.org/2000/svg" xmlns:xlink="http://www.w3.org/1999/xlink" x="0px" y="0px"
	 viewBox="0 0 339.1 385" style="enable-background:new 0 0 339.1 385;" xml:space="preserve">
<style type="text/css">
	.st0{fill:#A3A3A3;}
</style>
<g>
	<g>
		<path class="st0" d="M269.9,134.9l-99.3-57.3c-1.4-0.8-3-0.8-4.4,0l-99.3,57.3c-1.4,0.8-2.2,2.2-2.2,3.8l0,117
			c0,1.6,0.8,3,2.2,3.8l99.3,57.4c0.7,0.4,1.4,0.6,2.2,0.6c0.8,0,1.5-0.2,2.2-0.6l99.3-57.3c1.4-0.8,2.2-2.2,2.2-3.8v-117
			C272.1,137.2,271.3,135.7,269.9,134.9L269.9,134.9z M168.4,86.5l90.5,52.2L168.4,191l-90.5-52.3L168.4,86.5z M73.5,146.4
			l90.5,52.3l0,106.9l-90.5-52.3L73.5,146.4z M263.3,253.2l-90.5,52.2l0-106.9l90.5-52.2V253.2z M263.3,253.2"/>
		<path class="st0" d="M278.7,64.8h28c17.9,0,32.4-14.5,32.4-32.4c0-17.9-14.5-32.4-32.4-32.4c-17.9,0-32.4,14.5-32.4,32.4v28
			C274.3,62.8,276.2,64.8,278.7,64.8L278.7,64.8z M283.1,32.4c0-13,10.6-23.6,23.6-23.6c13,0,23.6,10.6,23.6,23.6
			c0,13-10.6,23.6-23.6,23.6h-23.6V32.4z M283.1,32.4"/>
		<path class="st0" d="M324.7,32.4c0-9.9-8.1-18-18-18c-9.9,0-18,8.1-18,18c0,9.9,8.1,18,18,18C316.6,50.4,324.7,42.3,324.7,32.4
			L324.7,32.4z M297.5,32.4c0-5.1,4.1-9.2,9.2-9.2c5.1,0,9.2,4.1,9.2,9.2c0,5.1-4.1,9.2-9.2,9.2C301.6,41.6,297.5,37.5,297.5,32.4
			L297.5,32.4z M297.5,32.4"/>
		<path class="st0" d="M330.2,97.6l-22.9,13.2C278.6,64.1,227.1,33,168.4,33c-58.7,0-110.2,31.2-138.9,77.8L6.6,97.6
			c-2.1-1.2-4.8-0.5-6,1.6c-1.2,2.1-0.5,4.8,1.6,6L25,118.4C12.5,141.5,5.3,168,5.3,196.1c0,88.5,70.8,160.7,158.7,163v21.5
			c0,2.4,2,4.4,4.4,4.4c2.4,0,4.4-2,4.4-4.4v-21.5c87.9-2.3,158.7-74.6,158.7-163c0-28.1-7.1-54.6-19.7-77.7l22.8-13.2
			c2.1-1.2,2.8-3.9,1.6-6C335,97.1,332.3,96.3,330.2,97.6L330.2,97.6z M168.4,350.4c-85.1,0-154.3-69.2-154.3-154.3
			S83.3,41.8,168.4,41.8S322.7,111,322.7,196.1S253.5,350.4,168.4,350.4L168.4,350.4z M168.4,350.4"/>
	</g>
</g>
</svg>
