<?xml version="1.0" encoding="utf-8"?>
<!-- Generator: Adobe Illustrator 21.0.2, SVG Export Plug-In . SVG Version: 6.00 Build 0)  -->
<svg version="1.1" id="Layer_1" xmlns="http://www.w3.org/2000/svg" xmlns:xlink="http://www.w3.org/1999/xlink" x="0px" y="0px"
	 viewBox="0 0 65 63" style="enable-background:new 0 0 65 63;" xml:space="preserve">
<style type="text/css">
	.st0{fill:#38454F;}
</style>
<g>
	<path class="st0" d="M3.9,37.3c0.4,0.4,0.9,0.7,1.5,0.7c0.6,0,1.1-0.2,1.5-0.7l25.6-25.6l25.6,25.6c0.4,0.4,0.9,0.7,1.5,0.7
		c0.6,0,1.1-0.2,1.5-0.7l3.3-3.3c0.4-0.4,0.6-0.9,0.6-1.5c0-0.6-0.2-1.1-0.6-1.5L34,0.7C33.6,0.2,33.1,0,32.5,0
		C32,0,31.5,0.2,31,0.7L0.7,31C0.2,31.5,0,32,0,32.5c0,0.6,0.2,1.1,0.7,1.5L3.9,37.3z M3.9,37.3"/>
	<path class="st0" d="M34,25.7c-0.4-0.4-0.9-0.7-1.5-0.7c-0.6,0-1.1,0.2-1.5,0.7L0.7,56.1C0.2,56.5,0,57,0,57.6
		c0,0.6,0.2,1.1,0.7,1.5l3.3,3.3C4.3,62.7,4.8,63,5.4,63c0.6,0,1.1-0.2,1.5-0.7l25.6-25.6l25.6,25.6c0.4,0.4,0.9,0.7,1.5,0.7
		c0.6,0,1.1-0.2,1.5-0.7l3.3-3.3c0.4-0.4,0.6-0.9,0.6-1.5c0-0.6-0.2-1.1-0.6-1.5L34,25.7z M34,25.7"/>
</g>
</svg>
