<?xml version="1.0" encoding="utf-8"?>
<!-- Generator: Adobe Illustrator 21.0.1, SVG Export Plug-In . SVG Version: 6.00 Build 0)  -->
<svg version="1.1" id="Layer_1" xmlns="http://www.w3.org/2000/svg" xmlns:xlink="http://www.w3.org/1999/xlink" x="0px" y="0px"
	 viewBox="0 0 1663.1 581.7" style="enable-background:new 0 0 1663.1 581.7;" xml:space="preserve">
<style type="text/css">
	.st0{fill:#FCB6A2;}
	.st1{fill:#FFFFFF;}
</style>
<g>
	<g>
		<g>
			<path class="st0" d="M171.5,57.9V44h-68.4v13.9H73V44H0V20.9h73V2.3h30.1v18.5h68.4V2.3h31.3v18.5h73V44h-73v13.9H171.5z
				 M32.5,159.9V63.7h210.9v96.2h-91.6v17.4h112.4v68.4c0.8,20.1-10,30.1-32.5,30.1c-12.4,0-24,0-34.8,0c0-0.8,0-1.9,0-3.5
				c-0.8-4.6-2.3-11.2-4.6-19.7c1.5,0,2.7,0,3.5,0c0-0.8-0.4-1.9-1.2-3.5c-0.8-3.1-1.6-5-2.3-5.8c-13.9,0.8-36.3,1.6-67.2,2.3
				C95,246.5,73,247.2,59.1,248l-3.5-20.9c7-0.8,18.1-1.2,33.6-1.2c15.4-0.8,27-1.2,34.8-1.2v-25.5H41.7v78.8H11.6V177.3H124v-17.4
				H32.5z M61.4,83.4V102H124V83.4H61.4z M61.4,120.5v18.5H124v-18.5H61.4z M214.4,83.4h-62.6V102h62.6V83.4z M151.8,120.5v18.5
				h62.6v-18.5H151.8z M235.3,199.3h-83.4v24.3l31.3-1.2l-4.6-13.9l19.7-5.8c1.5,2.3,3.5,6.2,5.8,11.6c7,15.5,12,26.7,15.1,33.6
				l-16.2,4.6c4.6,0,10.4,0,17.4,0c10,0.8,15.1-3.1,15.1-11.6V199.3z"/>
			<path class="st0" d="M477.5,132.1c-1.6-0.8-3.9-1.5-7-2.3c-7-2.3-11.6-3.9-13.9-4.6c7.7-23.9,13.1-56.4,16.2-97.4l22,2.3
				c-0.8,12.4-2.3,24.3-4.6,35.9h19.7V2.3h29v63.7h23.2v22c17-25.5,30.1-54.1,39.4-85.8l29,7c-1.6,4.6-4.6,12-9.3,22
				c-2.3,6.2-4.3,10.8-5.8,13.9h114.7c-0.8,25.5-1.9,66.5-3.5,122.8c-1.6,27.8-2.3,46-2.3,54.5c0.8,31.7-14.7,47.9-46.4,48.7
				c-3.1,0-8.9,0-17.4,0c-9.3,0.8-16.2,1.2-20.9,1.2c0-1.6-0.4-4.3-1.2-8.1c-2.3-10.8-4.3-17.8-5.8-20.9c13.1,0.8,25.1,1.2,35.9,1.2
				c17.8,0.8,26.7-8.5,26.7-27.8c3.1-51.8,5-99.3,5.8-142.5h-18.5c-3.9,96.6-35.5,163.4-95,200.5c-6.2-7.7-13.9-15.5-23.2-23.2
				c58.7-36.3,91.2-95.4,97.4-177.3h-20.9c-7,57.9-30.1,104.3-69.5,139.1c-7-8.5-14.3-15.8-22-22c37.8-29.4,61.4-68.4,70.7-117.1
				h-18.5c-8.5,17.8-18.2,33.6-29,47.5c-8.5-8.5-15.5-15.1-20.9-19.7l5.8-8.1h-18.5v53.3l24.3-5.8c0,13.9,0.4,24,1.2,30.1
				c-9.3,2.3-17.8,4.6-25.5,7v99.7h-29v-92.7c-14.7,4.6-30.5,9.7-47.5,15.1l-3.5-33.6c16.2-3.9,33.2-8.1,51-12.7V93.9h-23.2
				c-0.8,3.9-2.3,9.7-4.6,17.4C480.6,121.3,479,128.3,477.5,132.1z"/>
			<path class="st0" d="M930.6,103.1c-0.8-1.5-1.9-4.6-3.5-9.3c-1.6-2.3-4.3-8.1-8.1-17.4c40.2-20.9,69.5-46,88.1-75.3l32.5,3.5
				l-7,9.3c7,5.4,18.1,13.9,33.6,25.5c18.5,13.9,30.9,23.2,37.1,27.8l-17.4,20.9l-33.6-29v11.6h-69.5v-4.6c-7,7-15.5,13.5-25.5,19.7
				h125.2v93.9H970c0,1.6-0.4,3.5-1.2,5.8c-0.8,6.2-1.6,10.4-2.3,12.7h119.4v75.3h-25.5v-12.7h-71.9v12.7h-25.5v-61.4
				c-4.6,16.2-13.9,34.4-27.8,54.5c-1.6-1.6-4.3-4.6-8.1-9.3c-5.4-6.2-8.9-10.1-10.4-11.6c22.4-25.5,32.4-66.1,30.1-121.7V92.7
				L930.6,103.1z M972.4,141.4c0,7,0,13.1,0,18.5h83.4v-18.5H972.4z M973.5,105.5V124h82.3v-18.5H973.5z M988.6,217.9v24.3h71.9
				v-24.3H988.6z M1045.4,53.3l-26.7-22c-5.4,7.7-12.4,15.1-20.9,22H1045.4z M1107.9,208.6v-175h26.7v175H1107.9z M1116.1,275.8
				c0-0.8,0-1.6,0-2.3c-0.8-7.7-2.3-16.6-4.6-26.7c12.3,0,22.8,0,31.3,0c13.1,0.8,19.3-4.6,18.5-16.2V4.6h27.8v232.9
				c0.8,24.7-10.4,37.1-33.6,37.1C1138.5,274.7,1125.3,275,1116.1,275.8z"/>
			<path class="st0" d="M1394.2,277l-13.9-31.3l33.6-30.1v-63.7h-31.3V124h61.4v89.2c13.9,21.6,35.9,32.5,66.1,32.5
				c71.9,0,122.8-0.4,153-1.2c-3.9,7.7-7,17-9.3,27.8c-49.5,0-100.1-0.8-151.8-2.3c-31.7,0-55.6-10.1-71.9-30.1
				C1414.7,252.3,1402.7,264.6,1394.2,277z M1434.8,117.1c-9.3-7.7-26.3-20.9-51-39.4l16.2-20.9c3.1,2.3,7.3,5.4,12.8,9.3
				c10,6.2,23.6,15.5,40.6,27.8L1434.8,117.1z M1440.6,61.4c-19.3-16.2-36.3-29.4-51-39.4L1407,0c8.5,5.4,20.1,13.9,34.8,25.5
				c7.7,5.4,13.5,9.7,17.4,12.7L1440.6,61.4z M1492.7,86.9c-11.6-4.6-20.9-8.1-27.8-10.4c13.9-18.5,24.3-40.2,31.3-64.9l29,3.5
				c-1.6,3.9-3.9,9.7-7,17.4c-0.8,3.1-1.2,5-1.2,5.8h33.6V2.3h31.3v35.9h64.9v24.3H1582v30.1h77.6v25.5h-197V92.7h88.1V62.6h-44
				c-0.8,1.6-2.3,4.3-4.6,8.1C1498.9,77.6,1495.8,83.1,1492.7,86.9z M1482.3,223.7v-83.4h156.5v83.4H1482.3z M1512.4,164.6v33.6
				h96.2v-33.6H1512.4z"/>
		</g>
	</g>
	<g>
		<path class="st1" d="M1.4,581.5V384.3h87.7c12,0,22.3,4.3,30.9,12.9c8.6,8.6,12.9,18.9,12.9,30.8v109.7c0,11.8-4.3,22.1-12.9,30.8
			c-8.6,8.7-18.9,13-30.9,13H1.4z M45.1,559.5h22c6.1,0,11.3-2.2,15.6-6.5c4.3-4.3,6.4-9.4,6.4-15.3V428.1c0-6-2.2-11.1-6.5-15.4
			c-4.3-4.3-9.5-6.4-15.5-6.4h-22V559.5z"/>
		<path class="st1" d="M176.6,581.5V384.3h87.7c12,0,22.3,4.3,30.9,12.9c8.6,8.6,12.9,18.9,12.9,30.8V440c0,9.8-3.4,19.2-10.1,28.3
			c-6.7,9.1-17.9,13.6-33.7,13.6H286c6,0,11.2,2.2,15.5,6.5c4.3,4.3,6.5,9.5,6.5,15.5v77.6h-43.7v-65.7c0-6-2.2-11.2-6.5-15.5
			c-4.3-4.3-9.5-6.5-15.5-6.5h-22v87.7H176.6z M220.3,472h22c6,0,11.1-2.2,15.5-6.5c4.3-4.3,6.5-9.5,6.5-15.5v-22
			c0-6-2.2-11.1-6.5-15.4c-4.3-4.3-9.5-6.4-15.5-6.4h-22V472z"/>
		<path class="st1" d="M351.7,581.5V384.3h109.5v22h-65.7V472h43.9v21.8h-43.9v65.7h65.7v22H351.7z"/>
		<path class="st1" d="M505.2,581.5V428.1c0-12,4.3-22.3,12.9-30.9c8.6-8.6,18.9-12.9,30.9-12.9h43.9c12,0,22.3,4.3,30.9,12.9
			c8.6,8.6,12.9,18.9,12.9,30.8v153.4h-43.7v-87.7h-43.9v87.7H505.2z M548.9,472h43.9v-44c0-6-2.2-11.1-6.5-15.4
			c-4.3-4.3-9.5-6.4-15.5-6.4c-6,0-11.2,2.1-15.5,6.4c-4.3,4.3-6.5,9.4-6.5,15.4V472z"/>
		<path class="st1" d="M1001.2,581.5V428.1c0-12,4.3-22.3,12.9-30.9c8.6-8.6,18.9-12.9,30.9-12.9h43.9c12,0,22.3,4.3,30.9,12.9
			c8.6,8.6,12.9,18.9,12.9,30.8v153.4h-43.7v-87.7H1045v87.7H1001.2z M1045,472h43.9v-44c0-6-2.2-11.1-6.5-15.4
			c-4.3-4.3-9.5-6.4-15.5-6.4c-6,0-11.2,2.1-15.5,6.4c-4.3,4.3-6.5,9.4-6.5,15.4V472z"/>
		<path class="st1" d="M1176.4,581.5V384.3h43.7v80.5l70.9-80.5h38.8l-87.7,98.6l87.7,98.6h-43.9l-65.7-76.6v76.6H1176.4z"/>
		<path class="st1" d="M1373.6,581.5V384.3H1483v22h-65.7V472h43.9v21.8h-43.9v65.7h65.7v22H1373.6z"/>
		<path class="st1" d="M1527,581.5V384.3h87.7c12,0,22.3,4.3,30.9,12.9c8.6,8.6,12.9,18.9,12.9,30.8V440c0,9.8-3.4,19.2-10.1,28.3
			c-6.7,9.1-17.9,13.6-33.7,13.6h21.8c6,0,11.2,2.2,15.5,6.5c4.3,4.3,6.5,9.5,6.5,15.5v77.6h-43.7v-65.7c0-6-2.2-11.2-6.5-15.5
			c-4.3-4.3-9.5-6.5-15.5-6.5h-22v87.7H1527z M1570.7,472h22c6,0,11.1-2.2,15.5-6.5c4.3-4.3,6.5-9.5,6.5-15.5v-22
			c0-6-2.2-11.1-6.5-15.4c-4.3-4.3-9.5-6.4-15.5-6.4h-22V472z"/>
	</g>
	<g>
		<path class="st0" d="M683.8,581.7v-246h12.4l116.9,116.6l116.7-116.6h27.4v246h-54.8V431.3l-96,96l-95.2-96v150.4H683.8z"/>
	</g>
</g>
</svg>
